Coordinates
version=1
nRows=15
nColumns=34
inDegrees=no

Units are S.I. units (second, meters, Newtons, ...)
If the header above contains a line with 'inDegrees', this indicates whether rotational values are in degrees (yes) or radians (no).

endheader
time	pelvis_tilt	pelvis_list	pelvis_rotation	pelvis_tx	pelvis_ty	pelvis_tz	hip_flexion_r	hip_adduction_r	hip_rotation_r	knee_angle_r	ankle_angle_r	subtalar_angle_r	mtp_angle_r	hip_flexion_l	hip_adduction_l	hip_rotation_l	knee_angle_l	ankle_angle_l	subtalar_angle_l	mtp_angle_l	lumbar_extension	lumbar_bending	lumbar_rotation	arm_flex_r	arm_add_r	arm_rot_r	elbow_flex_r	pro_sup_r	arm_flex_l	arm_add_l	arm_rot_l	elbow_flex_l	pro_sup_l
9.75	-0.0716316	-0.0236742	-0.0325976	-0.257208	1.00925	-0.651551	0.490127	-0.179132	-0.231702	0.716394	0.333197	0.0422101	-0.0323864	0.514592	-0.227659	-0.223164	0.787999	0.392403	0.14024	-0.0323387	-0.378669	0.0076717	0.029329	0.378297	-0.296741	-0.000508558	1.08357	1.86686	0.34952	-0.264243	0.0534303	1.108	1.75428
9.76	-0.0653648	-0.0233886	-0.0318258	-0.25363	1.01475	-0.650576	0.464465	-0.175036	-0.23635	0.687593	0.323294	0.0453773	-0.0323864	0.48861	-0.225964	-0.231274	0.759187	0.383455	0.148638	-0.0323388	-0.373804	0.00702427	0.0291573	0.361737	-0.293883	0.000723668	1.06259	1.86246	0.329072	-0.26206	0.0514993	1.09067	1.74768
9.77	-0.0590141	-0.0231535	-0.0311927	-0.250081	1.01998	-0.649609	0.439088	-0.17075	-0.24052	0.659198	0.313554	0.0485019	-0.0323864	0.462909	-0.224305	-0.239488	0.730951	0.374794	0.157473	-0.0323389	-0.369206	0.00647303	0.0291109	0.345427	-0.291039	0.0020008	1.04179	1.85743	0.308835	-0.259446	0.0484112	1.07358	1.74101
9.78	-0.0525616	-0.0229714	-0.0307191	-0.246566	1.02493	-0.648656	0.413983	-0.166316	-0.244234	0.631247	0.304036	0.0516136	-0.0323864	0.437474	-0.222697	-0.247846	0.703325	0.36646	0.166756	-0.0323389	-0.364906	0.00603108	0.0292163	0.329349	-0.288215	0.00322954	1.02118	1.85215	0.288892	-0.256274	0.0439663	1.05652	1.73469
9.79	-0.0459969	-0.0228205	-0.0304257	-0.24309	1.02962	-0.647719	0.389165	-0.161807	-0.247514	0.603808	0.294804	0.0547624	-0.0323864	0.412294	-0.221121	-0.256383	0.676335	0.358481	0.176467	-0.032339	-0.360921	0.00568267	0.0294847	0.313473	-0.285417	0.00432577	1.00084	1.84697	0.269317	-0.252486	0.0381149	1.03931	1.729
9.8	-0.0393197	-0.0226619	-0.0303259	-0.239655	1.03404	-0.646801	0.364674	-0.157318	-0.250391	0.576975	0.28592	0.0580134	-0.0323865	0.387367	-0.219531	-0.265109	0.649997	0.350868	0.186557	-0.032339	-0.357257	0.00539308	0.0299082	0.297768	-0.282638	0.00522217	0.980867	1.84211	0.250155	-0.248118	0.0309952	1.02187	1.72404
9.81	-0.0325407	-0.0224493	-0.0304222	-0.236266	1.03819	-0.645906	0.340574	-0.152953	-0.252907	0.550866	0.277447	0.061438	-0.0323865	0.36271	-0.217862	-0.273999	0.624324	0.343622	0.196946	-0.0323391	-0.353906	0.00511823	0.0304605	0.282212	-0.279867	0.00586166	0.961342	1.83768	0.231416	-0.243291	0.0229214	1.00425	1.71969
9.82	-0.0256829	-0.0221338	-0.0307073	-0.232929	1.04207	-0.645033	0.31695	-0.14882	-0.255113	0.525613	0.269449	0.065109	-0.0323865	0.338362	-0.21604	-0.283001	0.599329	0.336731	0.207532	-0.0323391	-0.350848	0.0048088	0.0311012	0.266792	-0.277077	0.00618521	0.942346	1.83373	0.213074	-0.238185	0.0143168	0.986541	1.71574
9.83	-0.0187746	-0.0216694	-0.0311693	-0.229649	1.04569	-0.644184	0.293895	-0.145021	-0.257073	0.501351	0.261991	0.069098	-0.0323865	0.314371	-0.213995	-0.292053	0.575026	0.330189	0.218213	-0.0323392	-0.348062	0.00441422	0.0317812	0.251514	-0.274232	0.00613621	0.923934	1.83026	0.195075	-0.233001	0.00561667	0.968944	1.71198
9.84	-0.0118485	-0.0210204	-0.0317935	-0.226433	1.04905	-0.643358	0.271503	-0.141639	-0.25886	0.47821	0.255138	0.0734721	-0.0323865	0.290797	-0.211674	-0.301091	0.551434	0.32399	0.228894	-0.0323392	-0.345525	0.00389185	0.0324482	0.236393	-0.271299	0.00566804	0.906144	1.82724	0.177353	-0.227915	-0.00282653	0.951665	1.70828
9.85	-0.00493609	-0.0201713	-0.0325599	-0.223289	1.05215	-0.642555	0.249854	-0.138731	-0.260557	0.456292	0.248945	0.0782835	-0.0323866	0.267704	-0.209053	-0.310052	0.52858	0.318136	0.239502	-0.0323393	-0.343224	0.00321915	0.0330471	0.221448	-0.268254	0.0047581	0.889003	1.82459	0.159836	-0.223054	-0.0108101	0.934906	1.70455
9.86	0.00194349	-0.0191303	-0.0334388	-0.220224	1.055	-0.641775	0.228987	-0.136315	-0.262256	0.435658	0.243457	0.0835606	-0.0323866	0.245142	-0.206139	-0.318872	0.506489	0.312634	0.249984	-0.0323393	-0.341162	0.00239986	0.0335162	0.206709	-0.265089	0.00341379	0.872532	1.82216	0.142468	-0.218479	-0.0183035	0.918837	1.70071
9.87	0.00879386	-0.0179258	-0.0343889	-0.217242	1.05762	-0.641017	0.208891	-0.134375	-0.264051	0.416315	0.238692	0.0893046	-0.0323866	0.223134	-0.202966	-0.327481	0.485176	0.307486	0.260307	-0.0323394	-0.339373	0.00145976	0.0337864	0.192213	-0.261798	0.00165713	0.856731	1.81974	0.125206	-0.214185	-0.0254448	0.903582	1.69664
9.88	0.0156393	-0.0165988	-0.0353622	-0.214349	1.06001	-0.640282	0.189501	-0.132869	-0.266026	0.398221	0.234642	0.095492	-0.0323866	0.201673	-0.199578	-0.335804	0.464645	0.302686	0.27045	-0.0323395	-0.337909	0.00043718	0.033787	0.178013	-0.258371	-0.000500729	0.841563	1.81711	0.108034	-0.210102	-0.0325073	0.889199	1.6922
9.89	0.0225104	-0.0151952	-0.0363146	-0.211548	1.0622	-0.63957	0.170731	-0.131737	-0.26824	0.381294	0.231272	0.102079	-0.0323866	0.180733	-0.196029	-0.343761	0.444882	0.298211	0.280383	-0.0323395	-0.336827	-0.000627235	0.0334604	0.164168	-0.254789	-0.00308063	0.826943	1.81413	0.0909603	-0.206113	-0.0398453	0.875672	1.68728
